<?xml version="1.0" encoding="UTF-8"?>
<!DOCTYPE svg PUBLIC "-//W3C//DTD SVG 1.1//EN" "http://www.w3.org/Graphics/SVG/1.1/DTD/svg11.dtd">
<!-- Creator: CorelDRAW 2020 (64-Bit) -->
<svg xmlns="http://www.w3.org/2000/svg" xml:space="preserve" width="3.934mm" height="3.934mm" version="1.1" style="shape-rendering:geometricPrecision; text-rendering:geometricPrecision; image-rendering:optimizeQuality; fill-rule:evenodd; clip-rule:evenodd"
viewBox="0 0 28.79 28.79"
 xmlns:xlink="http://www.w3.org/1999/xlink"
 xmlns:xodm="http://www.corel.com/coreldraw/odm/2003">
 <defs>
  <style type="text/css">
   <![CDATA[
    .fil0 {fill:#727271;fill-rule:nonzero}
   ]]>
  </style>
 </defs>
 <g id="Layer_x0020_1">
  <metadata id="CorelCorpID_0Corel-Layer"/>
  <g id="_2671682151584">
   <path class="fil0" d="M8.36 1.86c-3.58,0 -6.5,2.92 -6.5,6.5 0,3.59 2.92,6.5 6.5,6.5 3.59,0 6.5,-2.92 6.5,-6.5 0,-3.58 -2.92,-6.5 -6.5,-6.5zm0 12.07c-3.07,0 -5.57,-2.5 -5.57,-5.57 0,-3.07 2.5,-5.57 5.57,-5.57 3.07,0 5.57,2.5 5.57,5.57 0,3.07 -2.5,5.57 -5.57,5.57z"/>
   <path class="fil0" d="M8.36 24.15c-0.77,0 -1.39,0.63 -1.39,1.39 0,0.77 0.63,1.39 1.39,1.39 0.77,0 1.39,-0.63 1.39,-1.39 0,-0.77 -0.63,-1.39 -1.39,-1.39zm0 1.86c-0.26,0 -0.46,-0.21 -0.46,-0.46 0,-0.26 0.21,-0.46 0.46,-0.46 0.26,0 0.46,0.21 0.46,0.46 0,0.26 -0.21,0.46 -0.46,0.46z"/>
   <path class="fil0" d="M8.36 6.97c-0.77,0 -1.39,0.63 -1.39,1.39 0,0.77 0.63,1.39 1.39,1.39 0.77,0 1.39,-0.63 1.39,-1.39 0,-0.77 -0.63,-1.39 -1.39,-1.39zm0 1.86c-0.26,0 -0.46,-0.21 -0.46,-0.46 0,-0.26 0.21,-0.46 0.46,-0.46 0.26,0 0.46,0.21 0.46,0.46 0,0.26 -0.21,0.46 -0.46,0.46z"/>
   <path class="fil0" d="M4.64 6.97c-0.77,0 -1.39,0.63 -1.39,1.39 0,0.77 0.63,1.39 1.39,1.39 0.77,0 1.39,-0.63 1.39,-1.39 0,-0.77 -0.63,-1.39 -1.39,-1.39zm0 1.86c-0.26,0 -0.46,-0.21 -0.46,-0.46 0,-0.26 0.21,-0.46 0.46,-0.46 0.26,0 0.46,0.21 0.46,0.46 0,0.26 -0.21,0.46 -0.46,0.46z"/>
   <path class="fil0" d="M10.68 8.36c0,0.77 0.63,1.39 1.39,1.39 0.77,0 1.39,-0.63 1.39,-1.39 0,-0.77 -0.63,-1.39 -1.39,-1.39 -0.77,0 -1.39,0.63 -1.39,1.39zm1.86 0c0,0.26 -0.21,0.46 -0.46,0.46 -0.26,0 -0.46,-0.21 -0.46,-0.46 0,-0.26 0.21,-0.46 0.46,-0.46 0.26,0 0.46,0.21 0.46,0.46z"/>
   <polygon class="fil0" points="21.36,22.29 26.93,22.29 26.93,23.22 21.36,23.22 "/>
   <polygon class="fil0" points="21.36,24.15 25.08,24.15 25.08,25.08 21.36,25.08 "/>
   <polygon class="fil0" points="26.01,24.15 26.93,24.15 26.93,25.08 26.01,25.08 "/>
   <polygon class="fil0" points="21.36,26.01 26.93,26.01 26.93,26.93 21.36,26.93 "/>
   <polygon class="fil0" points="21.36,12.07 26.93,12.07 26.93,13 21.36,13 "/>
   <polygon class="fil0" points="21.36,13.93 26.93,13.93 26.93,14.86 21.36,14.86 "/>
   <polygon class="fil0" points="26.01,15.79 26.93,15.79 26.93,16.72 26.01,16.72 "/>
   <polygon class="fil0" points="21.36,15.79 25.08,15.79 25.08,16.72 21.36,16.72 "/>
   <path class="fil0" d="M20.9 8.36l6.5 0c0.77,0 1.39,-0.63 1.39,-1.39l0 -5.57c0,-0.77 -0.63,-1.39 -1.39,-1.39l-6.5 0c-0.77,0 -1.39,0.63 -1.39,1.39l0 2.32 -2.05 0 -1.39 1.39c-1.27,-3 -4.24,-5.11 -7.7,-5.11 -4.61,0 -8.36,3.75 -8.36,8.36 0,3.77 2.5,6.96 5.93,8l0.16 0.26c0.26,0.44 0.4,0.94 0.41,1.44l-1.33 6.65c-0.04,0.21 -0.06,0.42 -0.06,0.64l0 0.19c0,1.79 1.46,3.25 3.25,3.25 1.79,0 3.25,-1.46 3.25,-3.25l0 -0.19c0,-0.21 -0.02,-0.43 -0.06,-0.64l-1.33 -6.65c0.01,-0.51 0.15,-1.01 0.41,-1.44l0.16 -0.26c0.24,-0.07 0.47,-0.16 0.7,-0.25l5.91 8.97 2.11 0 0 2.32c0,0.77 0.63,1.39 1.39,1.39l6.5 0c0.77,0 1.39,-0.63 1.39,-1.39l0 -5.57c0,-0.77 -0.63,-1.39 -1.39,-1.39l-6.5 0c-0.77,0 -1.39,0.63 -1.39,1.39l0 2.32 -1.61 0 -5.56 -8.44c1.16,-0.63 2.15,-1.53 2.9,-2.61l1.76 1.76 2.51 0 0 2.32c0,0.77 0.63,1.39 1.39,1.39l6.5 0c0.77,0 1.39,-0.63 1.39,-1.39l0 -5.57c0,-0.77 -0.63,-1.39 -1.39,-1.39l-6.5 0c-0.77,0 -1.39,0.63 -1.39,1.39l0 2.32 -2.13 0 -1.64 -1.64c0.63,-1.17 0.99,-2.51 0.99,-3.93 0,-0.79 -0.12,-1.55 -0.32,-2.27l1.44 -1.44 1.67 0 0 2.32c0,0.77 0.63,1.39 1.39,1.39zm-0.46 13.47c0,-0.26 0.21,-0.46 0.46,-0.46l6.5 0c0.26,0 0.46,0.21 0.46,0.46l0 5.57c0,0.26 -0.21,0.46 -0.46,0.46l-6.5 0c-0.26,0 -0.46,-0.21 -0.46,-0.46l0 -5.57zm0 -10.22c0,-0.26 0.21,-0.46 0.46,-0.46l6.5 0c0.26,0 0.46,0.21 0.46,0.46l0 5.57c0,0.26 -0.21,0.46 -0.46,0.46l-6.5 0c-0.26,0 -0.46,-0.21 -0.46,-0.46l0 -5.57zm-9.8 13.29c0.03,0.15 0.05,0.3 0.05,0.46l0 0.19c0,1.28 -1.04,2.32 -2.32,2.32 -1.28,0 -2.32,-1.04 -2.32,-2.32l0 -0.19c0,-0.15 0.01,-0.31 0.04,-0.46l1.26 -6.32 2.03 0 1.26 6.32zm-1.32 -7.25l-1.92 0c-0.04,-0.35 -0.13,-0.7 -0.27,-1.03 0.4,0.06 0.81,0.1 1.23,0.1 0.42,0 0.83,-0.04 1.23,-0.1 -0.14,0.33 -0.23,0.68 -0.27,1.03l0 0zm-0.96 -1.86c-4.1,0 -7.43,-3.33 -7.43,-7.43 0,-4.1 3.33,-7.43 7.43,-7.43 4.1,0 7.43,3.33 7.43,7.43 0,4.1 -3.33,7.43 -7.43,7.43zm12.07 -14.4c0,-0.26 0.21,-0.46 0.46,-0.46l6.5 0c0.26,0 0.46,0.21 0.46,0.46l0 5.57c0,0.26 -0.21,0.46 -0.46,0.46l-6.5 0c-0.26,0 -0.46,-0.21 -0.46,-0.46l0 -5.57z"/>
   <polygon class="fil0" points="21.36,1.86 26.93,1.86 26.93,2.79 21.36,2.79 "/>
   <polygon class="fil0" points="21.36,3.71 22.29,3.71 22.29,4.64 21.36,4.64 "/>
   <polygon class="fil0" points="23.22,3.71 26.93,3.71 26.93,4.64 23.22,4.64 "/>
   <polygon class="fil0" points="21.36,5.57 26.93,5.57 26.93,6.5 21.36,6.5 "/>
  </g>
 </g>
</svg>
