<?xml version="1.0" encoding="UTF-8"?>
<!DOCTYPE svg PUBLIC "-//W3C//DTD SVG 1.1//EN" "http://www.w3.org/Graphics/SVG/1.1/DTD/svg11.dtd">
<!-- Creator: CorelDRAW 2020 (64-Bit) -->
<svg xmlns="http://www.w3.org/2000/svg" xml:space="preserve" width="5mm" height="5mm" version="1.1" style="shape-rendering:geometricPrecision; text-rendering:geometricPrecision; image-rendering:optimizeQuality; fill-rule:evenodd; clip-rule:evenodd"
viewBox="0 0 5.16 5.48"
 xmlns:xlink="http://www.w3.org/1999/xlink"
 xmlns:xodm="http://www.corel.com/coreldraw/odm/2003">
 <defs>
  <style type="text/css">
   <![CDATA[
    .str0 {stroke:#2B2A29;stroke-width:0.35;stroke-miterlimit:22.9256}
    .fil0 {fill:black;fill-rule:nonzero}
    .fil1 {fill:#FFC107;fill-rule:nonzero}
   ]]>
  </style>
 </defs>
 <g id="Layer_x0020_1">
  <metadata id="CorelCorpID_0Corel-Layer"/>
  <g id="_2671680658464">
   <path class="fil0" d="M4.25 4.36c-0.02,-0.01 -0.14,-0.1 -0.26,-0.35 -0.22,-0.47 -0.27,-1.14 -0.27,-1.61 0,-0 0,-0 0,-0.01 -0,-0.63 -0.38,-1.17 -0.92,-1.41l0 -0.37c0,-0.34 -0.27,-0.61 -0.61,-0.61l-0.05 0c-0.34,0 -0.61,0.27 -0.61,0.61l0 0.37c-0.54,0.24 -0.92,0.79 -0.92,1.42 0,0.47 -0.05,1.14 -0.27,1.61 -0.12,0.26 -0.24,0.34 -0.26,0.35 -0.07,0.03 -0.1,0.1 -0.09,0.18 0.02,0.07 0.09,0.13 0.16,0.13l1.18 0c0.01,0.45 0.37,0.82 0.83,0.82 0.45,0 0.82,-0.37 0.83,-0.82l1.18 0c0.08,0 0.15,-0.05 0.16,-0.13 0.02,-0.07 -0.02,-0.15 -0.09,-0.18l0 0zm-2.39 -3.75c0,-0.16 0.13,-0.29 0.29,-0.29l0.05 0c0.16,0 0.29,0.13 0.29,0.29l0 0.27c-0.1,-0.02 -0.21,-0.03 -0.31,-0.03 -0.11,0 -0.21,0.01 -0.31,0.03l0 -0.27 0 0zm0.31 4.55c-0.27,0 -0.5,-0.22 -0.51,-0.49l1.01 0c-0.01,0.27 -0.23,0.49 -0.51,0.49zm0.65 -0.82c0,0 -2.29,0 -2.29,0 0.03,-0.04 0.06,-0.09 0.08,-0.15 0.22,-0.42 0.32,-1.03 0.32,-1.8 0,-0.68 0.55,-1.23 1.23,-1.23 0.68,0 1.23,0.55 1.23,1.23 0,0 0,0 0,0.01 0,0.77 0.11,1.37 0.32,1.79 0.03,0.06 0.06,0.1 0.08,0.15l-0.99 0z"/>
  </g>
  <path class="fil1 str0" d="M4.98 1.44c0,0.6 -0.48,1.08 -1.08,1.08 -0.6,0 -1.08,-0.48 -1.08,-1.08 0,-0.6 0.48,-1.08 1.08,-1.08 0.6,0 1.08,0.48 1.08,1.08zm0 0z"/>
 </g>
</svg>
