<?xml version="1.0" encoding="UTF-8"?>
<!DOCTYPE svg PUBLIC "-//W3C//DTD SVG 1.1//EN" "http://www.w3.org/Graphics/SVG/1.1/DTD/svg11.dtd">
<!-- Creator: CorelDRAW 2020 (64-Bit) -->
<svg xmlns="http://www.w3.org/2000/svg" xml:space="preserve" width="1.3554mm" height="0.9036mm" version="1.1" style="shape-rendering:geometricPrecision; text-rendering:geometricPrecision; image-rendering:optimizeQuality; fill-rule:evenodd; clip-rule:evenodd"
viewBox="0 0 1.64 1.09"
 xmlns:xlink="http://www.w3.org/1999/xlink"
 xmlns:xodm="http://www.corel.com/coreldraw/odm/2003">
 <defs>
  <style type="text/css">
   <![CDATA[
    .fil0 {fill:#FEFEFE;fill-rule:nonzero}
   ]]>
  </style>
 </defs>
 <g id="Layer_x0020_1">
  <metadata id="CorelCorpID_0Corel-Layer"/>
  <g id="_2651051362656">
   <path class="fil0" d="M1.17 0.42l-0.4 0.35c-0,0 -0,0 -0,0 -0.01,0.01 -0.02,0.03 -0.02,0.05 0,0.04 0.03,0.07 0.07,0.07 0.02,0 0.04,-0.01 0.05,-0.02l0.35 -0.4c0.01,-0.01 0.01,-0.03 -0,-0.05 -0.01,-0.01 -0.03,-0.01 -0.05,-0z"/>
   <path class="fil0" d="M0.82 0c-0.45,0 -0.82,0.37 -0.82,0.82 0,0.08 0.01,0.17 0.04,0.25 0,0.01 0.02,0.02 0.03,0.02l1.49 0c0.01,0 0.03,-0.01 0.03,-0.02 0.03,-0.08 0.04,-0.16 0.04,-0.25 0,-0.45 -0.37,-0.82 -0.82,-0.82zm0.65 0.85l0.1 0c-0,0.06 -0.01,0.11 -0.03,0.17l-1.44 0c-0.02,-0.06 -0.02,-0.11 -0.03,-0.17l0.1 0c0.02,0 0.03,-0.02 0.03,-0.03 0,-0.02 -0.02,-0.03 -0.03,-0.03l-0.1 0c0.01,-0.11 0.03,-0.22 0.08,-0.31l0.09 0.05c0.01,0 0.01,0 0.02,0 0.01,0 0.02,-0.01 0.03,-0.02 0.01,-0.02 0,-0.04 -0.01,-0.05l-0.09 -0.05c0.06,-0.09 0.14,-0.17 0.23,-0.23l0.05 0.09c0.01,0.01 0.02,0.02 0.03,0.02 0.01,0 0.01,-0 0.02,-0 0.02,-0.01 0.02,-0.03 0.01,-0.05l-0.05 -0.09c0.09,-0.05 0.2,-0.08 0.31,-0.08l0 0.1c0,0.02 0.02,0.03 0.03,0.03 0.02,0 0.03,-0.02 0.03,-0.03l0 -0.1c0.11,0.01 0.22,0.03 0.31,0.08l-0.05 0.09c-0.01,0.02 -0,0.04 0.01,0.05 0.01,0 0.01,0 0.02,0 0.01,0 0.02,-0.01 0.03,-0.02l0.05 -0.09c0.09,0.06 0.17,0.14 0.23,0.23l-0.09 0.05c-0.02,0.01 -0.02,0.03 -0.01,0.05 0.01,0.01 0.02,0.02 0.03,0.02 0.01,0 0.01,-0 0.02,-0l0.09 -0.05c0.05,0.09 0.08,0.2 0.08,0.31l-0.1 0c-0.02,0 -0.03,0.02 -0.03,0.03 0,0.02 0.02,0.03 0.03,0.03z"/>
  </g>
 </g>
</svg>
