<?xml version="1.0" encoding="UTF-8"?>
<!DOCTYPE svg PUBLIC "-//W3C//DTD SVG 1.1//EN" "http://www.w3.org/Graphics/SVG/1.1/DTD/svg11.dtd">
<!-- Creator: CorelDRAW 2020 (64-Bit) -->
<svg xmlns="http://www.w3.org/2000/svg" xml:space="preserve" width="30mm" height="30mm" version="1.1" style="shape-rendering:geometricPrecision; text-rendering:geometricPrecision; image-rendering:optimizeQuality; fill-rule:evenodd; clip-rule:evenodd"
viewBox="0 0 108.01 108.01"
 xmlns:xlink="http://www.w3.org/1999/xlink"
 xmlns:xodm="http://www.corel.com/coreldraw/odm/2003">
 <defs>
  <style type="text/css">
   <![CDATA[
    .fil2 {fill:#183651;fill-rule:nonzero}
    .fil6 {fill:#2CA0DA;fill-rule:nonzero}
    .fil7 {fill:#4FBF9F;fill-rule:nonzero}
    .fil0 {fill:#5862A6;fill-rule:nonzero}
    .fil4 {fill:#CFD0D1;fill-rule:nonzero}
    .fil1 {fill:#E1E6E7;fill-rule:nonzero}
    .fil5 {fill:#F06151;fill-rule:nonzero}
    .fil3 {fill:white;fill-rule:nonzero}
   ]]>
  </style>
 </defs>
 <g id="Layer_x0020_1">
  <metadata id="CorelCorpID_0Corel-Layer"/>
  <g id="_2665816023264">
   <circle class="fil0" cx="54" cy="54" r="54"/>
   <rect class="fil1" x="5.57" y="16.88" width="96.87" height="66.83"/>
   <path class="fil2" d="M102.44 85.39l-96.87 0c-1.01,0 -1.69,-0.68 -1.69,-1.69l0 -66.83c0,-1.01 0.68,-1.69 1.69,-1.69l96.87 0c1.01,0 1.69,0.68 1.69,1.69l0 66.83c0,1.01 -0.67,1.69 -1.69,1.69zm-95.18 -3.38l93.49 0 0 -63.45 -93.49 0 0 63.45z"/>
   <rect class="fil3" x="12.32" y="23.63" width="83.37" height="60.08"/>
   <polygon class="fil4" points="106.32,78.98 106.32,86.24 95.86,94.34 12.15,94.34 1.69,86.24 1.69,78.98 41.68,78.98 41.68,83.7 66.32,83.7 66.32,78.98 "/>
   <path class="fil2" d="M95.86 96.02l-83.7 0c-0.34,0 -0.68,-0.17 -1.01,-0.34l-10.46 -8.1c-0.34,-0.34 -0.68,-0.84 -0.68,-1.35l0 -7.09c0,-1.01 0.68,-1.69 1.69,-1.69l40 0c1.01,0 1.69,0.68 1.69,1.69l0 3.04 21.26 0 0 -3.04c0,-1.01 0.68,-1.69 1.69,-1.69l40 0c1.01,0 1.69,0.68 1.69,1.69l0 7.09c0,0.51 -0.17,1.01 -0.68,1.35l-10.46 8.1c-0.34,0.17 -0.68,0.34 -1.01,0.34zm-83.2 -3.38l82.69 0 9.28 -7.26 0 -4.56 -36.62 0 0 3.04c0,1.01 -0.68,1.69 -1.69,1.69l-24.64 0c-1.01,0 -1.69,-0.68 -1.69,-1.69l0 -3.04 -36.62 0 0 4.56 9.28 7.26z"/>
   <path class="fil5" d="M58.56 68.35l18.39 -25.15 -26.49 16.71c-3.38,2.02 -4.05,6.58 -1.35,9.45 2.7,2.7 7.26,2.36 9.45,-1.01z"/>
   <path class="fil6" d="M54 40.16c-14.18,0 -25.82,11.31 -26.16,25.31l8.44 0c0.51,-9.45 8.27,-16.88 17.72,-16.88 2.19,0 4.22,0.34 6.08,1.18l8.27 -5.23c-4.05,-2.7 -8.95,-4.39 -14.35,-4.39z"/>
   <path class="fil7" d="M80.16 65.65c-0.17,-5.4 -2.02,-10.29 -4.89,-14.34l-5.4 7.42c1.01,2.19 1.69,4.56 1.86,7.09l8.44 0 0 -0.17 0 0z"/>
   <rect class="fil2" x="17.38" y="29.2" width="3.38" height="3.38"/>
   <rect class="fil2" x="26.83" y="29.2" width="3.38" height="3.38"/>
   <rect class="fil2" x="36.45" y="29.2" width="3.38" height="3.38"/>
   <rect class="fil2" x="68.35" y="29.2" width="3.38" height="3.38"/>
   <rect class="fil2" x="77.8" y="29.2" width="3.38" height="3.38"/>
   <rect class="fil2" x="87.25" y="29.2" width="3.38" height="3.38"/>
  </g>
 </g>
</svg>
