<?xml version="1.0" encoding="UTF-8"?>
<!DOCTYPE svg PUBLIC "-//W3C//DTD SVG 1.1//EN" "http://www.w3.org/Graphics/SVG/1.1/DTD/svg11.dtd">
<!-- Creator: CorelDRAW 2020 (64-Bit) -->
<svg xmlns="http://www.w3.org/2000/svg" xml:space="preserve" width="22.0552mm" height="10.2585mm" version="1.1" style="shape-rendering:geometricPrecision; text-rendering:geometricPrecision; image-rendering:optimizeQuality; fill-rule:evenodd; clip-rule:evenodd"
viewBox="0 0 1799.84 623.88"
 xmlns:xlink="http://www.w3.org/1999/xlink"
 xmlns:xodm="http://www.corel.com/coreldraw/odm/2003">
 <defs>
  <style type="text/css">
   <![CDATA[
    .fil0 {fill:#303974}
   ]]>
  </style>
 </defs>
 <g id="Layer_x0020_1">
  <metadata id="CorelCorpID_0Corel-Layer"/>
  <g id="_2658863914320">
   <g>
    <path class="fil0" d="M43.02 446.39c0,124.17 -36.46,149.35 -43.02,177.49 50.4,-11.74 151.19,-83.52 155.98,-193.62 0,-55.75 -5.38,-90.21 -5.38,-145.22 30.9,35.55 62.99,108.5 62.99,155.5 22.91,-29.89 30.71,-71.73 30.71,-92.87 0,-66.31 -64.88,-88.82 -66.81,-175.58 -140.07,49.86 -134.47,112.43 -134.47,274.29z"/>
    <path class="fil0" d="M252.78 145.21c0,106.08 27.28,220.23 -32.27,311.94 37.88,-3.15 147.72,-91.27 150.59,-193.62 2.86,-107.79 -26.08,-143.33 5.37,-263.53 -42.15,3.5 -126.57,48.34 -123.7,145.21z"/>
   </g>
   <g>
    <path class="fil0" d="M469.28 363.49l110.75 0 0 -192.36 29.15 0 0 192.36 110.76 0c0,-59.35 10.77,-183.79 -15.7,-211.64 -33.8,-35.56 -156.91,-21.53 -234.96,-21.53l0 233.17z"/>
    <path class="fil0" d="M749.09 363.49l233.17 0 0 -69.95c-114.26,0 -104.93,-8.87 -104.93,34.98l-23.32 0 0 -58.3c90.53,0 99.1,8.73 99.1,-23.32 0,-26.9 -32.77,-17.48 -99.1,-17.48l0 -58.3 23.32 0 0 29.15 104.93 0 0 -69.96 -233.17 0 0 233.17z"/>
    <path class="fil0" d="M1005.58 147.81l0 215.68 239.01 0 0 -99.1 -104.93 0 0 64.13 -29.15 0 0 -198.2c-69.11,0 -104.93,-9.88 -104.93,17.49z"/>
    <path class="fil0" d="M1267.9 147.81l0 215.68 239.01 0 0 -99.1 -104.93 0 0 64.13 -29.15 0 0 -198.2c-69.11,0 -104.93,-9.88 -104.93,17.49z"/>
    <path class="fil0" d="M1637.24 171.13l0 192.36 -110.76 0c0,-59.35 -10.77,-183.79 15.7,-211.64 18.05,-18.99 76.49,-23.83 125.03,-24.22 48.53,0.39 96.7,5.23 114.76,24.22 26.47,27.85 15.7,152.29 15.7,211.64l-110.76 0 0 -192.36 -49.66 0z"/>
    <rect class="fil0" x="1619.15" y="268.95" width="102.54" height="20.72"/>
   </g>
  </g>
 </g>
</svg>
