<?xml version="1.0" encoding="UTF-8"?>
<!DOCTYPE svg PUBLIC "-//W3C//DTD SVG 1.1//EN" "http://www.w3.org/Graphics/SVG/1.1/DTD/svg11.dtd">
<!-- Creator: CorelDRAW 2020 (64-Bit) -->
<svg xmlns="http://www.w3.org/2000/svg" xml:space="preserve" width="4.8326mm" height="5.172mm" version="1.1" style="shape-rendering:geometricPrecision; text-rendering:geometricPrecision; image-rendering:optimizeQuality; fill-rule:evenodd; clip-rule:evenodd"
viewBox="0 0 4.8 5.68"
 xmlns:xlink="http://www.w3.org/1999/xlink"
 xmlns:xodm="http://www.corel.com/coreldraw/odm/2003">
 <defs>
  <style type="text/css">
   <![CDATA[
    .fil0 {fill:black;fill-rule:nonzero}
   ]]>
  </style>
 </defs>
 <g id="Layer_x0020_1">
  <metadata id="CorelCorpID_0Corel-Layer"/>
  <path class="fil0" d="M4.66 0.92l-2.18 -0.9c-0.05,-0.02 -0.12,-0.02 -0.17,0l-2.18 0.9c-0.08,0.03 -0.14,0.12 -0.14,0.21l0 1.1c0,1.51 0.91,2.87 2.31,3.44 0.05,0.02 0.11,0.02 0.17,0 1.4,-0.57 2.31,-1.93 2.31,-3.44l0 -1.1c0,-0.09 -0.05,-0.17 -0.14,-0.21zm-0.31 1.3c0,1.29 -0.75,2.47 -1.95,3 -1.17,-0.51 -1.95,-1.68 -1.95,-3l0 -0.95 1.95 -0.81 1.95 0.81 0 0.95zm-2.2 0.75l0.95 -0.95c0.09,-0.09 0.23,-0.09 0.31,0 0.09,0.09 0.09,0.23 0,0.31l-1.11 1.11c-0.09,0.09 -0.23,0.09 -0.31,0l-0.62 -0.62c-0.09,-0.09 -0.09,-0.23 0,-0.31 0.09,-0.09 0.23,-0.09 0.31,0l0.46 0.46z"/>
 </g>
</svg>
